<?xml version="1.0" encoding="utf-8"?>
<svg version="1.1" width="1080" height="1080" viewBox="0 0 1080 1080" xmlns="http://www.w3.org/2000/svg">
  <desc>Created with Fabric.js 5.2.4</desc>
  <defs/>
  <g transform="matrix(1 0 0 1 540 540)" id="3d376b21-cf29-4d39-afce-1cd47c88f76f">
    <rect style="stroke: none; stroke-width: 1; stroke-dasharray: none; stroke-linecap: butt; stroke-dashoffset: 0; stroke-linejoin: miter; stroke-miterlimit: 4; fill: rgb(255,255,255); fill-rule: nonzero; opacity: 1; visibility: hidden;" vector-effect="non-scaling-stroke" x="-540" y="-540" rx="0" ry="0" width="1080" height="1080"/>
  </g>
  <g transform="matrix(1 0 0 1 540 540)" id="87b846e2-7b8b-4f47-89bf-bc74efce7eec"/>
  <g transform="matrix(2.385083, 0, 0, 2.385083, 540.045365, 197.488669)" style="">
    <path style="stroke: none; stroke-width: 1; stroke-dasharray: none; stroke-linecap: butt; stroke-dashoffset: 0; stroke-linejoin: miter; stroke-miterlimit: 4; fill: rgb(0,194,97); fill-rule: nonzero; opacity: 1;" vector-effect="non-scaling-stroke" transform=" translate(-252.39, -97.58)" d="M 233.035 28.915 L 78.262 118.273 C 72.367 121.677 67.473 126.577 64.076 132.482 L 131.546 171.434 L 252.447 101.631 L 373.314 171.413 L 440.701 132.508 C 437.306 126.592 432.405 121.681 426.501 118.273 L 271.729 28.915 C 259.756 22.002 245.007 22.002 233.035 28.915 Z" stroke-linecap="round"/>
  </g>
  <g transform="matrix(2.385083, 0, 0, 2.385083, 770.730553, 669.663472)" style="">
    <path style="stroke: none; stroke-width: 1; stroke-dasharray: none; stroke-linecap: butt; stroke-dashoffset: 0; stroke-linejoin: miter; stroke-miterlimit: 4; fill: rgb(5,175,74); fill-rule: nonzero; opacity: 1;" vector-effect="non-scaling-stroke" transform=" translate(-349.11, -295.55)" d="M 445.888 330.579 L 445.888 151.864 C 445.888 145.055 444.091 138.367 440.677 132.475 L 373.206 171.428 L 373.206 311.033 L 252.34 380.815 L 252.34 458.628 C 259.16 458.645 265.863 456.857 271.77 453.447 L 426.54 364.088 C 438.512 357.178 445.888 344.404 445.888 330.579 Z" stroke-linecap="round"/>
  </g>
  <g transform="matrix(2.385083, 0, 0, 2.385083, 309.216989, 669.663472)" style="">
    <path style="stroke: none; stroke-width: 1; stroke-dasharray: none; stroke-linecap: butt; stroke-dashoffset: 0; stroke-linejoin: miter; stroke-miterlimit: 4; fill: rgb(4,150,66); fill-rule: nonzero; opacity: 1;" vector-effect="non-scaling-stroke" transform=" translate(-155.61, -295.55)" d="M 78.202 364.101 L 232.972 453.46 C 238.87 456.863 245.561 458.651 252.372 458.641 L 252.372 380.735 L 131.469 310.932 L 131.469 171.368 L 64.082 132.462 C 60.657 138.358 58.854 145.057 58.854 151.877 L 58.854 330.592 C 58.854 344.415 66.23 357.189 78.202 364.101 Z" stroke-linecap="round"/>
  </g>
  <g transform="matrix(2.385083, 0, 0, 2.385083, 539.92598, 540.177384)" style="">
    <polygon style="stroke: none; stroke-width: 1; stroke-dasharray: none; stroke-linecap: butt; stroke-dashoffset: 0; stroke-linejoin: miter; stroke-miterlimit: 4; fill: rgb(13,13,13); fill-rule: nonzero; opacity: 1;" vector-effect="non-scaling-stroke" points="0,-145.21 -125.75,-72.6 -125.75,72.6 0,145.21 125.75,72.6 125.75,-72.6 0,-145.21 "/>
  </g>
  <g transform="matrix(2.385083, 0, 0, 2.385083, 542.096513, 600.949237)" style="">
    <rect style="stroke: none; stroke-width: 1; stroke-dasharray: none; stroke-linecap: butt; stroke-dashoffset: 0; stroke-linejoin: miter; stroke-miterlimit: 4; fill: rgb(13,13,13); fill-rule: nonzero; opacity: 1;" vector-effect="non-scaling-stroke" x="-9.001" y="-19.878" rx="0" ry="0" width="18.002" height="39.756"/>
  </g>
  <g transform="matrix(2.385083, 0, 0, 2.385083, 544.099992, 524.411942)" style="">
    <path style="stroke: rgb(0,0,0); stroke-width: 0; stroke-dasharray: none; stroke-linecap: butt; stroke-dashoffset: 0; stroke-linejoin: miter; stroke-miterlimit: 4; fill: rgb(0,194,97); fill-rule: nonzero; opacity: 1;" vector-effect="non-scaling-stroke" transform=" translate(-254.09, -234.66)" d="M 189.483 181.073 L 318.69 181.073 C 328.2312713380768 181.073 335.966 188.8077286619232 335.966 198.349 L 335.966 270.968 C 335.966 275.549880078468 334.1458552258471 279.94409827771057 330.9059767517788 283.1839767517788 C 327.66609827771055 286.4238552258471 323.271880078468 288.244 318.69 288.244 L 189.483 288.244 C 184.90111992153203 288.244 180.50690172228946 286.4238552258471 177.2670232482212 283.1839767517788 C 174.02714477415296 279.94409827771057 172.207 275.549880078468 172.207 270.968 L 172.207 198.349 C 172.207 188.8077286619232 179.9417286619232 181.073 189.483 181.073 Z M 185.227 204.859 L 185.227 264.458 C 185.22700000000003 270.4038976166783 190.0471023833217 275.224 195.993 275.224 L 312.18 275.224 C 318.12589761667834 275.224 322.946 270.40389761667836 322.946 264.458 L 322.946 204.859 C 322.946 202.00367927038747 321.81172825662594 199.26530504411716 319.7927116062544 197.24628839374563 C 317.77369495588283 195.22727174337408 315.0353207296125 194.093 312.18 194.093 L 195.993 194.093 C 193.13767927038745 194.093 190.39930504411717 195.22727174337408 188.38028839374562 197.24628839374563 C 186.3612717433741 199.26530504411718 185.227 202.00367927038747 185.227 204.859 Z" stroke-linecap="round"/>
  </g>
  <g transform="matrix(1.955766, -1.359495, 1.359495, 1.955766, 357.371898, 633.863361)" style="">
    <path style="stroke: rgb(0,0,0); stroke-width: 0; stroke-dasharray: none; stroke-linecap: butt; stroke-dashoffset: 0; stroke-linejoin: miter; stroke-miterlimit: 4; fill: rgb(0,194,97); fill-rule: nonzero; opacity: 1;" vector-effect="non-scaling-stroke" transform=" translate(-144.08, -215.83)" d="M 155.21 194.085 L 163.604 237.574 L 124.562 237.574 L 155.21 194.085 Z" stroke-linecap="round"/>
  </g>
  <g transform="matrix(2.05117, -1.192541, 1.216392, 2.05117, 540.570023, 250.055931)" style="">
    <path style="stroke: none; stroke-width: 1; stroke-dasharray: none; stroke-linecap: butt; stroke-dashoffset: 0; stroke-linejoin: miter; stroke-miterlimit: 4; fill: rgb(13,13,13); fill-rule: nonzero; opacity: 1;" vector-effect="non-scaling-stroke" transform=" translate(-231.74, -155.88)" d="M 219.61 138.078 L 265.232 173.687 L 198.24 173.687 L 219.61 138.078 Z" stroke-linecap="round"/>
  </g>
  <g transform="matrix(2.385083, 0, 0, 2.385083, 515.574417, 586.424029)" style="">
    <rect style="stroke: rgb(13,13,13); stroke-width: 0; stroke-dasharray: none; stroke-linecap: butt; stroke-dashoffset: 0; stroke-linejoin: miter; stroke-miterlimit: 4; fill: rgb(13,13,13); fill-rule: nonzero; opacity: 1;" vector-effect="non-scaling-stroke" x="-27.3995" y="-14.643" rx="0" ry="0" width="54.799" height="29.286"/>
  </g>
  <g transform="matrix(2.385083, 0, 0, 2.385083, 543.313004, 471.439284)" style="">
    <rect style="stroke: rgb(0,0,0); stroke-width: 0; stroke-dasharray: none; stroke-linecap: butt; stroke-dashoffset: 0; stroke-linejoin: miter; stroke-miterlimit: 4; fill: rgb(0,194,97); fill-rule: nonzero; opacity: 1;" vector-effect="non-scaling-stroke" x="-54.5225" y="-6.9975" rx="0" ry="0" width="109.045" height="13.995"/>
  </g>
  <g transform="matrix(2.385083, 0, 0, 2.385083, 543.599137, 523.839493)" style="">
    <rect style="stroke: rgb(0,0,0); stroke-width: 0; stroke-dasharray: none; stroke-linecap: butt; stroke-dashoffset: 0; stroke-linejoin: miter; stroke-miterlimit: 4; fill: rgb(0,194,97); fill-rule: nonzero; opacity: 1;" vector-effect="non-scaling-stroke" x="-54.5225" y="-6.9975" rx="0" ry="0" width="109.045" height="13.995"/>
  </g>
  <g transform="matrix(2.385083, 0, 0, 2.385083, 543.599137, 579.841326)" style="">
    <rect style="stroke: rgb(0,0,0); stroke-width: 0; stroke-dasharray: none; stroke-linecap: butt; stroke-dashoffset: 0; stroke-linejoin: miter; stroke-miterlimit: 4; fill: rgb(0,194,97); fill-rule: nonzero; opacity: 1;" vector-effect="non-scaling-stroke" x="-54.5225" y="-6.9975" rx="0" ry="0" width="109.045" height="13.995"/>
  </g>
</svg>