<?xml version="1.0" encoding="utf-8"?>
<svg viewBox="0 0 500 500" xmlns="http://www.w3.org/2000/svg" xmlns:bx="https://boxy-svg.com">
  <path style="fill: rgb(0, 194, 97);" d="M 233.035 28.915 L 78.262 118.273 C 72.367 121.677 67.473 126.577 64.076 132.482 L 131.546 171.434 L 252.447 101.631 L 373.314 171.413 L 440.701 132.508 C 437.306 126.592 432.405 121.681 426.501 118.273 L 271.729 28.915 C 259.756 22.002 245.007 22.002 233.035 28.915 Z" transform="matrix(1, 0, 0, 1, 0, 2.842170943040401e-14)"/>
  <path style="fill: rgb(5, 175, 74);" d="M 445.888 330.579 L 445.888 151.864 C 445.888 145.055 444.091 138.367 440.677 132.475 L 373.206 171.428 L 373.206 311.033 L 252.34 380.815 L 252.34 458.628 C 259.16 458.645 265.863 456.857 271.77 453.447 L 426.54 364.088 C 438.512 357.178 445.888 344.404 445.888 330.579 Z" transform="matrix(1, 0, 0, 1, 0, 2.842170943040401e-14)"/>
  <path style="fill: rgb(4, 150, 66);" d="M 78.202 364.101 L 232.972 453.46 C 238.87 456.863 245.561 458.651 252.372 458.641 L 252.372 380.735 L 131.469 310.932 L 131.469 171.368 L 64.082 132.462 C 60.657 138.358 58.854 145.057 58.854 151.877 L 58.854 330.592 C 58.854 344.415 66.23 357.189 78.202 364.101 Z" transform="matrix(1, 0, 0, 1, 0, 2.842170943040401e-14)"/>
  <polygon style="fill: rgb(13, 13, 13);" points="252.34 96.058 126.588 168.662 126.588 313.868 252.34 386.47 378.092 313.868 378.092 168.662 252.34 96.058" transform="matrix(1, 0, 0, 1, 0, 2.842170943040401e-14)"/>
  <rect style="fill: rgb(13, 13, 13);" x="244.251" y="246.868" width="18.002" height="39.756" transform="matrix(1, 0, 0, 1, 0, 2.842170943040401e-14)"/>
  <path d="M 189.483 181.073 H 318.69 A 17.276 17.276 0 0 1 335.966 198.349 V 270.968 A 17.276 17.276 0 0 1 318.69 288.244 H 189.483 A 17.276 17.276 0 0 1 172.207 270.968 V 198.349 A 17.276 17.276 0 0 1 189.483 181.073 Z M 185.227 204.859 V 264.458 A 10.766 10.766 0 0 0 195.993 275.224 H 312.18 A 10.766 10.766 0 0 0 322.946 264.458 V 204.859 A 10.766 10.766 0 0 0 312.18 194.093 H 195.993 A 10.766 10.766 0 0 0 185.227 204.859 Z" style="fill: rgb(0, 194, 97); stroke: rgb(0, 0, 0); stroke-width: 0px; paint-order: fill;" transform="matrix(1, 0, 0, 1, 0, 2.842170943040401e-14)" bx:shape="frame 172.207 181.073 163.759 107.171 13.02 13.02 17.276 17.276 17.276 17.276 1@77f4feed"/>
  <path d="M 155.21 194.085 L 163.604 237.574 L 124.562 237.574 L 155.21 194.085 Z" style="fill: rgb(0, 194, 97); stroke: rgb(0, 0, 0); stroke-width: 0px; transform-origin: 144.083px 215.83px;" transform="matrix(0.824678897858, -0.565600991249, 0.571635901928, 0.820540010929, 31.41818757528, 65.168289219867)" bx:shape="triangle 124.562 194.085 39.042 43.489 0.785 0 1@3f39440f"/>
  <path d="M 219.61 138.078 L 265.232 173.687 L 198.24 173.687 L 219.61 138.078 Z" style="fill: rgb(13, 13, 13); transform-origin: 231.736px 155.882px;" transform="matrix(0.86497092247, -0.501822113991, 0.507719099522, 0.861550092697, -26.973708625591, 101.611113660753)" bx:shape="triangle 198.24 138.078 66.992 35.609 0.319 0 1@306e99cb"/>
  <rect x="214.735" y="246.012" width="54.799" height="29.286" style="stroke: rgb(13, 13, 13); stroke-width: 0px; paint-order: fill; fill: rgb(13, 13, 13);" transform="matrix(1, 0, 0, 1, 0, 2.842170943040401e-14)"/>
  <rect x="199.238" y="205.446" width="109.045" height="13.995" style="fill: rgb(0, 194, 97); stroke: rgb(0, 0, 0); stroke-width: 0px; paint-order: fill;" transform="matrix(1, 0, 0, 1, 0, 2.842170943040401e-14)"/>
  <rect x="199.355" y="227.418" width="109.045" height="13.995" style="fill: rgb(0, 194, 97); stroke: rgb(0, 0, 0); stroke-width: 0px; paint-order: fill;" transform="matrix(1, 0, 0, 1, 0, 2.842170943040401e-14)"/>
  <rect x="199.355" y="250.9" width="109.045" height="13.995" style="fill: rgb(0, 194, 97); stroke: rgb(0, 0, 0); stroke-width: 0px; paint-order: fill;" transform="matrix(1, 0, 0, 1, 0, 2.842170943040401e-14)"/>
</svg>